# xmcd
#
# Track frame offsets: 
#        150
#        17636
#        31206
#        46918
#        64188
#        85501
#        99641
#        113873
#        125776
#        147421
#
# Disc length: 2195 seconds
#
# Revision: 2
# Processed by: cddbd v1.4PL0 Copyright (c) Steve Scherf et al.
# Submitted via: ExactAudioCopy v0.90b3
#
DISCID=8308910a
DTITLE=Kenny Rogers - Love Collection - Disc 1
DYEAR=1900
DGENRE=Country
TTITLE0=I Swear
TTITLE1=I Will Always Love You
TTITLE2=Through The Years
TTITLE3=Lady
TTITLE4=Always And Forever
TTITLE5=You Are So Beautiful
TTITLE6=You Light Up My Life
TTITLE7=Love Is A Many Spendored Thing
TTITLE8=Have I Told You Lately That I Love You
TTITLE9=Endless Love
EXTD=
EXTT0=
EXTT1=
EXTT2=
EXTT3=
EXTT4=
EXTT5=
EXTT6=
EXTT7=
EXTT8=
EXTT9=
PLAYORDER=
